<?xml version="1.0" encoding="UTF-8"?>
<svg width="48px" height="48px" viewBox="0 0 48 48" version="1.1" xmlns="http://www.w3.org/2000/svg" xmlns:xlink="http://www.w3.org/1999/xlink">
    <!-- Generator: Sketch 48.1 (47250) - http://www.bohemiancoding.com/sketch -->
    <title>Group 2@2x</title>
    <desc>Created with Sketch.</desc>
    <defs></defs>
    <g id="切图" stroke="none" stroke-width="1" fill="none" fill-rule="evenodd" transform="translate(-142.000000, -448.000000)">
        <g id="Group-2" transform="translate(142.000000, 448.000000)" fill="#FF6050">
            <path d="M22.5,23 L14,23 L14,26 L22.5,26 L22.5,34.5 L25.5,34.5 L25.5,26 L34,26 L34,23 L25.5,23 L25.5,14.5 L22.5,14.5 L22.5,23 Z M24,0 C37.254834,2.4348735e-15 48,10.745166 48,24 C48,37.254834 37.254834,48 24,48 C10.745166,48 0,37.254834 0,24 C0,10.745166 10.745166,-2.4348735e-15 24,0 Z" id="Combined-Shape"></path>
        </g>
    </g>
</svg>