<?xml version="1.0" encoding="UTF-8"?>
<svg width="24px" height="28px" viewBox="0 0 24 28" version="1.1" xmlns="http://www.w3.org/2000/svg" xmlns:xlink="http://www.w3.org/1999/xlink">
    <!-- Generator: Sketch 48.1 (47250) - http://www.bohemiancoding.com/sketch -->
    <title>删除@2x</title>
    <desc>Created with Sketch.</desc>
    <defs></defs>
    <g id="切图" stroke="none" stroke-width="1" fill="none" fill-rule="evenodd" transform="translate(-201.000000, -110.000000)">
        <g id="Group-12" transform="translate(201.000000, 110.000000)" fill="#AAAAAA">
            <path d="M2,6 C2,6.5517533 2.44656882,7 2.99109042,7 L21.0089096,7 C21.5534998,7 22,6.55243993 22,6 C22,5.4482467 21.5534312,5 21.0089096,5 L2.99109042,5 C2.44650024,5 2,5.44756007 2,6 Z M8,3 L8,2.5 C8,1.11928813 9.11236572,0 10.5093004,0 L13.4906996,0 C14.876548,0 16,1.10966206 16,2.5 L16,3 L21.0089096,3 C22.6608432,3 24,4.34651712 24,6 C24,7.65685425 22.6582294,9 21.0089096,9 L2.99109042,9 C1.33915679,9 0,7.65348288 0,6 C0,4.34314575 1.34177063,3 2.99109042,3 L8,3 Z M10.5,2 C10.2238576,2 10,2.22385763 10,2.5 L10,3 L14,3 L14,2.5 C14,2.22385763 13.7761424,2 13.5,2 L10.5,2 Z" id="Combined-Shape" fill-rule="nonzero"></path>
            <path d="M8,12.9953976 C8,12.4456547 8.44386482,12 9,12 C9.55228475,12 10,12.4556644 10,12.9953976 L10,21.0046024 C10,21.5543453 9.55613518,22 9,22 C8.44771525,22 8,21.5443356 8,21.0046024 L8,12.9953976 Z M14,12.9953976 C14,12.4456547 14.4438648,12 15,12 C15.5522847,12 16,12.4556644 16,12.9953976 L16,21.0046024 C16,21.5543453 15.5561352,22 15,22 C14.4477153,22 14,21.5443356 14,21.0046024 L14,12.9953976 Z" id="Combined-Shape"></path>
            <path d="M4,9 L4,24.991212 C4,25.5513431 4.44663467,26 4.99420208,26 L19.0057979,26 C19.5511775,26 20,25.5492784 20,24.991212 L20,9 L4,9 Z M2,7 L22,7 L22,24.991212 C22,26.6529197 20.656688,28 19.0057979,28 L4.99420208,28 C3.34054993,28 2,26.6544098 2,24.991212 L2,7 Z" id="Rectangle-22-Copy" fill-rule="nonzero"></path>
        </g>
    </g>
</svg>