<?xml version="1.0" encoding="UTF-8"?>
<svg width="34px" height="36px" viewBox="0 0 34 36" version="1.1" xmlns="http://www.w3.org/2000/svg" xmlns:xlink="http://www.w3.org/1999/xlink">
    <!-- Generator: Sketch 48.1 (47250) - http://www.bohemiancoding.com/sketch -->
    <title>31@2x</title>
    <desc>Created with Sketch.</desc>
    <defs></defs>
    <g id="切图" stroke="none" stroke-width="1" fill="none" fill-rule="evenodd" transform="translate(-618.000000, -155.000000)">
        <path d="M618,158.990179 C618,156.786464 619.795309,155 622.004032,155 L630.624181,155 C632.835546,155 636.421869,155 638.635464,155 L647.992749,155 C650.205892,155 652,156.785246 652,158.990179 L652,187.009821 C652,189.213536 650.207968,191 647.999788,191 L622.000212,191 C619.790956,191 618,189.214754 618,187.009821 L618,158.990179 Z M621.777778,159.996535 L621.777778,186.003465 C621.777778,186.560187 622.227446,187 622.78214,187 L647.21786,187 C647.774325,187 648.222222,186.553836 648.222222,186.003465 L648.222222,159.996535 C648.222222,159.439813 647.777406,159 647.228697,159 L635.704357,159 C635.16038,159 634.266089,159 633.717471,159 L622.771138,159 C622.222963,159 621.777778,159.446164 621.777778,159.996535 Z" id="Combined-Shape" fill="#FF6050"></path>
        <rect id="Rectangle-9" fill="#FF6050" x="625" y="163" width="20" height="4"></rect>
        <rect id="Rectangle-9-Copy" fill="#FF6050" x="625" y="171" width="20" height="4"></rect>
        <rect id="Rectangle-9-Copy-2" fill="#FF6050" x="625" y="179" width="15" height="4"></rect>
    </g>
</svg>