<?xml version="1.0" encoding="UTF-8"?>
<svg width="48px" height="48px" viewBox="0 0 48 48" version="1.1" xmlns="http://www.w3.org/2000/svg" xmlns:xlink="http://www.w3.org/1999/xlink">
    <!-- Generator: Sketch 48.1 (47250) - http://www.bohemiancoding.com/sketch -->
    <title>出库_选中@2x</title>
    <desc>Created with Sketch.</desc>
    <defs></defs>
    <g id="收货_选中" stroke="none" stroke-width="1" fill="none" fill-rule="evenodd">
        <g id="出库" transform="translate(6.000000, 3.000000)" fill="#FF6050">
            <path d="M1,20 L5,20 L5,24 L1,24 L1,20 Z M29,36.0004848 L33.000391,36.0004848 L33.000391,14.1027754 L19.0017933,4.36383472 L5.00319572,14.122773 L5.00319572,22.0021816 C5.00319572,23.1066172 4.10785491,24.0019392 3.00339606,24.0019392 C1.8989372,24.0019392 1.0035964,23.1066172 1.0035964,22.0021816 L1.0035964,13.0029088 C1.00144366,12.3117919 1.35701315,11.6687542 1.94350224,11.3031148 L17.9418995,0.304326787 C18.5902388,-0.101442262 19.4133479,-0.101442262 20.0616872,0.304326787 L36.0600844,11.3031148 C36.6465735,11.6687542 37.002143,12.3117919 36.9999903,13.0029088 L36.9999903,38.0002424 C36.9999903,39.104678 36.1046495,40 35.0001906,40 L28.000496,40 L25,40 L25,36 L29,36 L29,36.0004848 Z" id="Shape" fill-rule="nonzero"></path>
            <path d="M7.46446609,34 L12.0208153,38.5563492 L9.19238816,41.3847763 L2.82842712,35.0208153 L4.79616347e-14,32.1923882 L9.19238816,23 L12.0208153,25.8284271 L7.8492424,30 L21,30 L21,34 L7.46446609,34 Z" id="Combined-Shape"></path>
        </g>
    </g>
</svg>