<?xml version="1.0" encoding="UTF-8"?>
<svg width="48px" height="48px" viewBox="0 0 48 48" version="1.1" xmlns="http://www.w3.org/2000/svg" xmlns:xlink="http://www.w3.org/1999/xlink">
    <!-- Generator: Sketch 48.1 (47250) - http://www.bohemiancoding.com/sketch -->
    <title>会员_未选中@2x</title>
    <desc>Created with Sketch.</desc>
    <defs></defs>
    <g id="我的_未选中" stroke="none" stroke-width="1" fill="none" fill-rule="evenodd">
        <g id="会员" transform="translate(2.000000, 2.000000)" fill="#999999">
            <g id="Group-3">
                <path d="M6.5506,31.1893 C4.9416,28.4953 3.9996,25.3593 3.9996,22.0003 C3.9996,12.0743 12.0746,4.0003 21.9996,4.0003 C31.9256,4.0003 39.9996,12.0743 39.9996,22.0003 C39.9996,25.3593 39.0576,28.4953 37.4496,31.1893 C38.4306,32.2113 39.3356,33.2933 40.1706,34.4013 C42.5856,30.8703 43.9996,26.6013 43.9996,22.0003 C43.9996,9.8493 34.1506,0.0003 21.9996,0.0003 C9.8496,0.0003 -0.0004,9.8493 -0.0004,22.0003 C-0.0004,26.6013 1.4146,30.8703 3.8296,34.4013 C4.6636,33.2933 5.5696,32.2113 6.5506,31.1893" id="Fill-1"></path>
            </g>
            <path d="M22,26 C14.06,26 6.233,37.336 6.233,37.336 C6.233,37.336 12.083,44 22,44 C31.917,44 37.767,37.336 37.767,37.336 C37.767,37.336 29.94,26 22,26 M22,30 C25.247,30 29.348,33.482 32.243,36.779 C30.058,38.264 26.534,40 22,40 C17.428,40 13.925,38.28 11.755,36.798 C14.534,33.652 18.685,30 22,30" id="Fill-4"></path>
            <path d="M22,10 C27.523,10 32,14.477 32,20 C32,25.523 27.523,30 22,30 C16.477,30 12,25.523 12,20 C12,14.477 16.477,10 22,10 Z M22,14 C18.692,14 16,16.692 16,20 C16,23.308 18.692,26 22,26 C25.308,26 28,23.308 28,20 C28,16.692 25.308,14 22,14 Z" id="Fill-6"></path>
        </g>
    </g>
</svg>