<?xml version="1.0" encoding="UTF-8"?>
<svg width="31px" height="32px" viewBox="0 0 31 32" version="1.1" xmlns="http://www.w3.org/2000/svg" xmlns:xlink="http://www.w3.org/1999/xlink">
    <!-- Generator: Sketch 48.1 (47250) - http://www.bohemiancoding.com/sketch -->
    <title>搜索@2x</title>
    <desc>Created with Sketch.</desc>
    <defs></defs>
    <g id="search" stroke="none" stroke-width="1" fill="none" fill-rule="evenodd" transform="translate(-157.000000, -45.000000)">
        <g id="搜索" transform="translate(157.000000, 45.000000)" fill="#FFEAEA" fill-rule="nonzero">
            <path d="M15,30 C6.71572875,30 0,23.2842712 0,15 C0,6.71572875 6.71572875,0 15,0 C23.2842712,0 30,6.71572875 30,15 C30,23.2842712 23.2842712,30 15,30 Z M15,28 C22.1797017,28 28,22.1797017 28,15 C28,7.82029825 22.1797017,2 15,2 C7.82029825,2 2,7.82029825 2,15 C2,22.1797017 7.82029825,28 15,28 Z" id="Oval"></path>
            <path d="M24,28 L31,28 L24,28 Z M24,27 L31,27 C31.5522847,27 32,27.4477153 32,28 C32,28.5522847 31.5522847,29 31,29 L24,29 C23.4477153,29 23,28.5522847 23,28 C23,27.4477153 23.4477153,27 24,27 Z" id="Rectangle-2" transform="translate(27.500000, 28.000000) rotate(45.000000) translate(-27.500000, -28.000000) "></path>
        </g>
    </g>
</svg>
