<?xml version="1.0" encoding="UTF-8"?>
<svg width="28px" height="26px" viewBox="0 0 28 26" version="1.1" xmlns="http://www.w3.org/2000/svg" xmlns:xlink="http://www.w3.org/1999/xlink">
    <!-- Generator: Sketch 48.1 (47250) - http://www.bohemiancoding.com/sketch -->
    <title>店铺@2x</title>
    <desc>Created with Sketch.</desc>
    <defs>
        <polygon id="path-1" points="0 0.11526125 28.4892161 0.11526125 28.4892161 15.5108362 0 15.5108362"></polygon>
    </defs>
    <g id="切图" stroke="none" stroke-width="1" fill="none" fill-rule="evenodd" transform="translate(-83.000000, -206.000000)">
        <g id="Page-1" transform="translate(83.000000, 206.000000)">
            <g id="Group-3">
                <mask id="mask-2" fill="white">
                    <use xlink:href="#path-1"></use>
                </mask>
                <g id="Clip-2"></g>
                <path d="M24.095889,13.0868238 C23.6409603,13.3378863 23.0722188,13.4690238 22.4061078,13.4690238 C21.1767364,13.4690238 20.0610165,12.8411238 19.4055452,11.7765863 C19.3568604,11.6782738 19.2810927,11.5091113 19.1348772,11.3506738 C18.9668985,11.1650988 18.6689863,10.9411738 18.1706927,10.9411738 C17.7699299,10.9411738 17.4070509,11.1051363 17.2011885,11.3615613 C17.065935,11.5144738 16.9900061,11.6673863 16.9358403,11.7819488 C16.2913311,12.8357613 15.1810923,13.4690238 13.9786426,13.4743863 C12.7602333,13.4690238 11.6498334,12.8357613 11.0000043,11.7765863 C10.9566394,11.6837988 10.8807105,11.5255238 10.7615779,11.3943863 C10.2903672,10.8266113 9.22881318,10.8539113 8.81724942,11.3506738 C8.665714,11.5199988 8.58446522,11.6891613 8.53561923,11.8038863 C7.8857902,12.8575363 6.76458929,13.4854363 5.5460188,13.4907988 C4.89602857,13.4907988 4.33824925,13.3651863 3.88864042,13.1250113 C2.73503672,12.5081613 2.02024091,11.3015988 2.02024091,9.98583625 C2.02024091,9.59827375 2.08520769,9.20518625 2.21514126,8.82298625 C2.22594219,8.79568625 2.23142326,8.76302375 2.23674312,8.73572375 L4.73901207,2.77392375 C4.78785807,2.62117375 4.94487456,2.15707375 5.72479836,2.15707375 L22.308577,2.15707375 C22.6282523,2.17884875 23.1805505,2.23344875 23.3754509,2.81211125 L25.7152223,8.69201125 C25.7260232,8.73572375 25.7369853,8.77391125 25.7477863,8.80657375 C25.877881,9.18877375 25.9426866,9.57633625 25.9426866,9.96406125 C25.9320469,11.2634113 25.2277296,12.4589238 24.095889,13.0868238 M27.6758327,8.24432375 C27.6758327,8.22791125 27.6705128,8.21702375 27.6705128,8.20061125 C27.6595507,8.14064875 27.6434299,8.08604875 27.6216668,8.03144875 L25.2548125,2.10247375 C24.84341,0.87413625 23.6735243,0.12078625 22.2977761,0.11526125 L5.71931729,0.11526125 C4.32744832,0.11526125 3.24413126,0.86308625 2.85416936,2.04234875 L0.314177752,8.09141125 C0.303376823,8.12959875 0.287094826,8.17883625 0.276293897,8.23343625 C0.0920332717,8.80657375 -1.64367816e-05,9.39076125 -1.64367816e-05,9.98047375 C-1.64367816e-05,12.0495862 1.12650434,13.9384862 2.93541814,14.9102362 C3.67745808,15.3086862 4.55491266,15.5108362 5.54053773,15.5108362 C7.19259625,15.5053112 8.72519971,14.7737362 9.77047171,13.5180987 C10.8104238,14.7628487 12.3269065,15.4890612 13.9786426,15.4999487 C15.6144191,15.4890612 17.1309018,14.7574862 18.1653729,13.5127362 C19.2106449,14.7683737 20.7434096,15.4944237 22.4061078,15.4944237 C23.4134959,15.4890612 24.3015902,15.2760237 25.0544311,14.8609987 C26.8364232,13.8785237 27.9413421,12.0003487 27.9413421,9.95317375 C27.946662,9.36898625 27.8491312,8.77927375 27.6758327,8.24432375" id="Fill-1" fill="#999999" mask="url(#mask-2)"></path>
            </g>
            <path d="M24.9979689,16.4666667 C24.4429953,16.4666667 23.9959378,16.937582 23.9959378,17.5221724 L23.9959378,23.2819333 C23.9959378,23.6111349 23.7427441,23.8778406 23.4303811,23.8778406 L4.57507082,23.8889885 C4.26254744,23.8889885 4.00935379,23.6224518 4.00935379,23.298993 L4.00390187,17.6412525 C4.00390187,17.0566621 3.55139238,16.5857468 3.00187076,16.5857468 C2.44705757,16.5857468 2,17.062405 2,17.6412525 L2.00529157,23.298993 C2.00529157,24.7857208 3.15821262,26 4.57507082,26 L23.4356727,25.9888521 C24.8472393,25.9831092 26,24.7744039 26,23.2819333 L26,17.5221724 C26,16.943156 25.5527821,16.4666667 24.9979689,16.4666667" id="Fill-4" fill="#999999"></path>
            <path d="M21.9168422,8.66666667 L5.28892778,8.66666667 C4.71353348,8.66666667 4.25002603,8.27986344 4.25002603,7.8 C4.25002603,7.32013656 4.71353348,6.93333333 5.28892778,6.93333333 L21.9111896,6.93333333 C22.4865839,6.93333333 22.9500914,7.32013656 22.9500914,7.8 C22.9557439,8.27986344 22.4865839,8.66666667 21.9168422,8.66666667" id="Fill-6" fill="#999999"></path>
        </g>
    </g>
</svg>