<?xml version="1.0" encoding="UTF-8"?>
<svg width="30px" height="30px" viewBox="0 0 30 30" version="1.1" xmlns="http://www.w3.org/2000/svg" xmlns:xlink="http://www.w3.org/1999/xlink">
    <!-- Generator: Sketch 48.1 (47250) - http://www.bohemiancoding.com/sketch -->
    <title>Group 11@2x</title>
    <desc>Created with Sketch.</desc>
    <defs></defs>
    <g id="切图" stroke="none" stroke-width="1" fill="none" fill-rule="evenodd" transform="translate(-360.000000, -652.000000)">
        <g id="Group-11" transform="translate(360.000000, 652.000000)" fill="#BFBFBF">
            <path d="M15,13.3786797 L10.7573593,9.13603897 C10.1715729,8.55025253 9.22182541,8.55025253 8.63603897,9.13603897 C8.05025253,9.72182541 8.05025253,10.6715729 8.63603897,11.2573593 L12.8786797,15.5 L8.63603897,19.7426407 C8.05025253,20.3284271 8.05025253,21.2781746 8.63603897,21.863961 C9.22182541,22.4497475 10.1715729,22.4497475 10.7573593,21.863961 L15,17.6213203 L19.2426407,21.863961 C19.8284271,22.4497475 20.7781746,22.4497475 21.363961,21.863961 C21.9497475,21.2781746 21.9497475,20.3284271 21.363961,19.7426407 L17.1213203,15.5 L21.363961,11.2573593 C21.9497475,10.6715729 21.9497475,9.72182541 21.363961,9.13603897 C20.7781746,8.55025253 19.8284271,8.55025253 19.2426407,9.13603897 L15,13.3786797 Z M15,30 C6.71572875,30 0,23.2842712 0,15 C0,6.71572875 6.71572875,0 15,0 C23.2842712,0 30,6.71572875 30,15 C30,23.2842712 23.2842712,30 15,30 Z" id="Combined-Shape"></path>
        </g>
    </g>
</svg>