<?xml version="1.0" encoding="UTF-8"?>
<svg width="110px" height="110px" viewBox="0 0 110 110" version="1.1" xmlns="http://www.w3.org/2000/svg" xmlns:xlink="http://www.w3.org/1999/xlink">
    <!-- Generator: Sketch 48.1 (47250) - http://www.bohemiancoding.com/sketch -->
    <title>Fill 411@2x</title>
    <desc>Created with Sketch.</desc>
    <defs></defs>
    <g id="切图" stroke="none" stroke-width="1" fill="none" fill-rule="evenodd" transform="translate(-288.000000, -98.000000)">
        <path d="M343,98 C328.0675,98 314.29,103.9895 304.159,114.159 L293.5,103.5 L293.5,136.5 L326.5,136.5 L311.9305,121.9305 C320.032,113.7905 331.054,109 343,109 C367.2605,109 387,128.7395 387,153 C387,177.2605 367.2605,197 343,197 C318.7395,197 299,177.2605 299,153 L288,153 C288,183.3325 312.673,208 343,208 C373.327,208 398,183.3325 398,153 C398,122.673 373.327,98 343,98" id="Fill-411" fill="#DCDCDC"></path>
    </g>
</svg>