<?xml version="1.0" encoding="UTF-8"?>
<svg width="40px" height="40px" viewBox="0 0 40 40" version="1.1" xmlns="http://www.w3.org/2000/svg" xmlns:xlink="http://www.w3.org/1999/xlink">
    <!-- Generator: Sketch 48.1 (47250) - http://www.bohemiancoding.com/sketch -->
    <title>购物车@2x</title>
    <desc>Created with Sketch.</desc>
    <defs></defs>
    <g id="切图" stroke="none" stroke-width="1" fill="none" fill-rule="evenodd" transform="translate(-91.000000, -142.000000)">
        <g id="Group-3" transform="translate(91.000000, 143.000000)" fill="#FFFFFF" fill-rule="nonzero">
            <g id="cart-购物车">
                <path d="M33.1507746,28 L7.80018225,28 C6.72320182,28 5.85013669,27.1045695 5.85013669,26 L5.85013669,4 L0,4 L0,0 L7.80018225,0 C8.87716268,6.76353751e-17 9.75022781,0.8954305 9.75022781,2 L9.75022781,24 L31.626619,24 L34.5548074,12 L13.6503189,12 L13.6503189,8 L37.0508657,8 C37.6512838,8.00029333 38.2180952,8.28424771 38.5874226,8.76976579 C38.95675,9.25528387 39.0874115,9.88822789 38.9416299,10.4856 L35.0415387,26.4856 C34.8244105,27.3753318 34.0450429,27.9995631 33.1507746,28 Z" id="Shape"></path>
                <path d="M6,35 C6,37.209139 7.790861,39 10,39 C12.209139,39 14,37.209139 14,35 C14,32.790861 12.209139,31 10,31 C7.790861,31 6,32.790861 6,35 Z" id="Shape"></path>
                <path d="M28,35.0000001 C28,37.209139 29.790861,39 32,39 C34.209139,39 36,37.209139 36,35.0000001 C36,33.5709377 35.2376044,32.2504296 34,31.5358984 C32.7623957,30.8213672 31.2376043,30.8213672 30,31.5358984 C28.7623956,32.2504296 28,33.5709377 28,35.0000001 Z" id="Shape"></path>
            </g>
        </g>
        <rect id="Rectangle-3" fill="#FF6050" opacity="0" x="91" y="142" width="40" height="40"></rect>
    </g>
</svg>